<svg fill="#545760" xmlns="http://www.w3.org/2000/svg" viewBox="0 0 100 100"><path d="M27.678 26.78h9.189c.081 0 .159-.013.239-.02l10.795 13.085a4.654 4.654 0 0 0 6.213.535v3.714a7.22 7.22 0 0 0-2.274 13.87v-.197a2.775 2.775 0 0 1 2.771-2.771 2.774 2.774 0 0 1 2.77 2.771v.197a7.22 7.22 0 0 0-2.273-13.87v-3.813c.689.648 1.563 1.042 2.52 1.042 2.218 0 4.015-2.083 4.015-4.654V22.027l5.855 4.511c2.081 1.508 4.888 1.186 6.269-.721 1.382-1.906.815-4.674-1.267-6.182l-5.67-4.368h8.878c2.571 0 4.654-1.748 4.654-3.903S78.28 7.46 75.709 7.46h-18.1c-2.454-1.535-6.026-2.475-10.725-2.475-3.886 0-7.51.716-10.477 1.893h-8.729c-2.375 0-4.3 3.186-4.3 7.115v5.671c0 3.931 1.926 7.116 4.3 7.116zm26.934 21.551a.5.5 0 0 0 .497-.5v-.695a1.711 1.711 0 0 1 1.217 1.633 1.716 1.716 0 0 1-3.43 0c0-.772.515-1.418 1.218-1.633v.695a.5.5 0 0 0 .498.5zm-4.769-29.157c1.907 0 3.769 1.825 3.769 3.73v9.266l-7.136-8.651c-.024-.232-.045-.518-.089-.888-.222-1.893 1.551-3.457 3.456-3.457z"/><path d="M76.131 68.937h-9.913c-2.132 0-3.923 2.384-4.466 5.627l1.241.217-7.028-.224c.457-.387.753-.957.753-1.601V57.768a2.108 2.108 0 0 0-2.105-2.108 2.11 2.11 0 0 0-2.107 2.108v15.188c0 .594.249 1.128.645 1.511l-2.68-.085a4.109 4.109 0 0 0-2.738 1.16 5.074 5.074 0 0 0-.892 1.26 4.092 4.092 0 0 0-.374 1.803c.052 2.223 1.902 4.03 4.125 4.03l.125-.001.027.001 10.234.717 5.295-.284-4.615.708-10.961.644-.105.001c-3.184 0-5.834-2.59-5.909-5.774a5.873 5.873 0 0 1 .419-2.326l-9.491-3.555c-2.597-.973-5.253-.286-5.934 1.53a2.57 2.57 0 0 0-.154 1.063l-.569-.173c-2.672-.741-5.3.327-5.87 2.384-.562 2.031 1.096 4.266 3.712 5.034a2.813 2.813 0 0 0-.194.492c-.551 1.987 1.17 4.198 3.842 4.938l10.266 3.108C43.287 93.487 47.667 95 53.854 95c6.538 0 12.394-1.874 15.931-4.595h6.346c2.561 0 4.638-3.437 4.638-7.676v-6.118c0-4.239-2.078-7.674-4.638-7.674z"/></svg>