<svg fill="#545760" xmlns="http://www.w3.org/2000/svg" viewBox="0 0 100 100"><path d="M29.341 70.13c-2.253-2.253-5.824-2.729-7.733-.823l-.123.125-.002-.002L1.275 89.637l-.03-.029-.06.055c-1.906 1.914-1.427 5.48.826 7.738 2.255 2.253 5.824 2.728 7.733.824l.04-.041.03.033 20.21-20.211.003.003.138-.146c1.909-1.904 1.431-5.475-.824-7.733zm59.502-58.381c-14.874-14.878-39-14.878-53.874 0-14.878 14.876-14.878 38.994 0 53.875 14.879 14.876 39 14.876 53.874 0 14.876-14.881 14.878-39.001 0-53.875zM40.224 60.373c-12.001-12.006-12.001-31.525 0-43.525 11.996-12 31.522-12 43.52 0 11.997 12 11.997 31.52 0 43.521-12.003 11.999-31.519 11.999-43.52.004z"/><path d="M82.458 33.894l-4.807-3.365V20.201a.618.618 0 0 0-.618-.621h-4.752a.617.617 0 0 0-.617.621v6.136l-9.403-6.583a.623.623 0 0 0-.714 0l-20.193 14.14a.621.621 0 0 0-.153.864l2.75 3.926a.618.618 0 0 0 .864.153l1.21-.846v19.183a.62.62 0 0 0 .621.618h10.619a.622.622 0 0 0 .621-.618V42.857h8.042v14.315a.62.62 0 0 0 .62.618h10.538a.618.618 0 0 0 .618-.618v-19.24l1.293.903a.618.618 0 0 0 .864-.152l2.753-3.926a.619.619 0 0 0-.156-.863z"/></svg>